<mxfile host="ed37ddfd-9d56-4459-84b2-1fa655edcfc2" modified="2020-09-22T07:14:39.972Z" agent="5.0 (Macintosh; Intel Mac OS X 10_15_6) AppleWebKit/537.36 (KHTML, like Gecko) Code/1.49.1 Chrome/83.0.4103.122 Electron/9.2.1 Safari/537.36" etag="S0X-XgqPM16wlVxS1olN" version="13.1.3">
    <diagram id="6hGFLwfOUW9BJ-s0fimq" name="Page-1">
        <mxGraphModel dx="1128" dy="671" grid="1" gridSize="10" guides="1" tooltips="1" connect="1" arrows="1" fold="1" page="1" pageScale="1" pageWidth="827" pageHeight="1169" math="0" shadow="0">
            <root>
                <mxCell id="0"/>
                <mxCell id="1" parent="0"/>
                <mxCell id="28" value="" style="whiteSpace=wrap;html=1;aspect=fixed;fillColor=none;strokeColor=#F0F0F0;strokeWidth=2;rounded=1;shadow=0;perimeterSpacing=0;dashed=1;dashPattern=1 1;" parent="1" vertex="1">
                    <mxGeometry x="197.09" y="359.16" width="243.24" height="240.84" as="geometry"/>
                </mxCell>
                <mxCell id="18" value="" style="whiteSpace=wrap;html=1;aspect=fixed;fillColor=none;strokeColor=#F0F0F0;strokeWidth=5;rounded=1;shadow=0;perimeterSpacing=0;dashed=1;dashPattern=1 1;" parent="1" vertex="1">
                    <mxGeometry x="138" y="160" width="501" height="470" as="geometry"/>
                </mxCell>
                <mxCell id="26" value="" style="whiteSpace=wrap;html=1;aspect=fixed;fillColor=none;strokeColor=#F0F0F0;strokeWidth=2;rounded=1;shadow=0;perimeterSpacing=0;dashed=1;dashPattern=1 1;" parent="1" vertex="1">
                    <mxGeometry x="237" y="400.75" width="159.83" height="158.25" as="geometry"/>
                </mxCell>
                <mxCell id="31" style="edgeStyle=orthogonalEdgeStyle;rounded=0;orthogonalLoop=1;jettySize=auto;html=1;exitX=0.5;exitY=0;exitDx=0;exitDy=0;entryX=0;entryY=0.5;entryDx=0;entryDy=0;entryPerimeter=0;startArrow=classic;startFill=1;" parent="1" source="25" target="13" edge="1">
                    <mxGeometry relative="1" as="geometry">
                        <Array as="points">
                            <mxPoint x="319" y="430"/>
                            <mxPoint x="478" y="430"/>
                            <mxPoint x="478" y="240"/>
                        </Array>
                    </mxGeometry>
                </mxCell>
                <mxCell id="25" value="" style="whiteSpace=wrap;html=1;aspect=fixed;fillColor=none;strokeColor=#F0F0F0;strokeWidth=2;rounded=1;shadow=0;perimeterSpacing=0;dashed=1;dashPattern=1 1;" parent="1" vertex="1">
                    <mxGeometry x="278" y="441" width="82" height="76.41" as="geometry"/>
                </mxCell>
                <mxCell id="2" value="" style="shape=mxgraph.signs.tech.computer;html=1;fillColor=#000000;strokeColor=none;verticalLabelPosition=bottom;verticalAlign=bottom;align=center;horizontal=1;" parent="1" vertex="1">
                    <mxGeometry x="56.25" y="58" width="43.75" height="43.75" as="geometry"/>
                </mxCell>
                <mxCell id="3" value="" style="dashed=0;outlineConnect=0;html=1;align=center;labelPosition=center;verticalLabelPosition=bottom;verticalAlign=bottom;shape=mxgraph.weblogos.github;horizontal=1;" parent="1" vertex="1">
                    <mxGeometry x="171" y="52.38" width="55" height="55" as="geometry"/>
                </mxCell>
                <mxCell id="6" value="" style="outlineConnect=0;dashed=0;verticalLabelPosition=bottom;verticalAlign=top;align=center;html=1;shape=mxgraph.aws3.ecr;fillColor=#F58534;gradientColor=none;" parent="1" vertex="1">
                    <mxGeometry x="173" y="214" width="50.06" height="52.24" as="geometry"/>
                </mxCell>
                <mxCell id="23" style="rounded=0;orthogonalLoop=1;jettySize=auto;html=1;exitX=0;exitY=0.5;exitDx=0;exitDy=0;exitPerimeter=0;" parent="1" source="7" target="6" edge="1">
                    <mxGeometry relative="1" as="geometry"/>
                </mxCell>
                <mxCell id="30" style="rounded=0;orthogonalLoop=1;jettySize=auto;html=1;exitX=0.5;exitY=0.905;exitDx=0;exitDy=0;exitPerimeter=0;entryX=0.5;entryY=0;entryDx=0;entryDy=0;" parent="1" source="7" target="28" edge="1">
                    <mxGeometry relative="1" as="geometry">
                        <mxPoint x="322" y="358" as="targetPoint"/>
                    </mxGeometry>
                </mxCell>
                <mxCell id="7" value="" style="outlineConnect=0;dashed=0;verticalLabelPosition=bottom;verticalAlign=top;align=center;html=1;shape=mxgraph.aws3.ecs;fillColor=#F58534;gradientColor=none;" parent="1" vertex="1">
                    <mxGeometry x="293" y="215.49" width="52" height="48.75" as="geometry"/>
                </mxCell>
                <mxCell id="11" value="" style="aspect=fixed;html=1;points=[];align=center;image;fontSize=12;image=img/lib/mscae/Docker.svg;" parent="1" vertex="1">
                    <mxGeometry x="256" y="421.92" width="44" height="36.08" as="geometry"/>
                </mxCell>
                <mxCell id="13" value="" style="outlineConnect=0;dashed=0;verticalLabelPosition=bottom;verticalAlign=top;align=center;html=1;shape=mxgraph.aws3.rds;fillColor=#2E73B8;gradientColor=none;" parent="1" vertex="1">
                    <mxGeometry x="532" y="210.61999999999998" width="52" height="58.5" as="geometry"/>
                </mxCell>
                <mxCell id="21" style="edgeStyle=orthogonalEdgeStyle;rounded=0;orthogonalLoop=1;jettySize=auto;html=1;exitX=0.5;exitY=1;exitDx=0;exitDy=0;entryX=0.5;entryY=0;entryDx=0;entryDy=0;entryPerimeter=0;" parent="1" source="14" target="6" edge="1">
                    <mxGeometry relative="1" as="geometry">
                        <Array as="points">
                            <mxPoint x="319" y="180"/>
                            <mxPoint x="198" y="180"/>
                        </Array>
                    </mxGeometry>
                </mxCell>
                <mxCell id="22" style="edgeStyle=orthogonalEdgeStyle;rounded=0;orthogonalLoop=1;jettySize=auto;html=1;exitX=0.5;exitY=1;exitDx=0;exitDy=0;" parent="1" source="14" target="7" edge="1">
                    <mxGeometry relative="1" as="geometry"/>
                </mxCell>
                <mxCell id="14" value="" style="shape=image;verticalLabelPosition=bottom;labelBackgroundColor=#ffffff;verticalAlign=bottom;aspect=fixed;imageAspect=0;image=https://assets.brandfolder.com/otz5mn-bw4j2w-6jzqo8/v/798999/view.png?v=1592401194;horizontal=1;" parent="1" vertex="1">
                    <mxGeometry x="296" y="57.5" width="46" height="46" as="geometry"/>
                </mxCell>
                <mxCell id="15" value="" style="shape=image;verticalLabelPosition=bottom;labelBackgroundColor=#ffffff;verticalAlign=top;aspect=fixed;imageAspect=0;image=data:image/svg+xml,PHN2ZyB4bWxucz0iaHR0cDovL3d3dy53My5vcmcvMjAwMC9zdmciIGlkPSJMYXllcl8xIiB2aWV3Qm94PSIwIDAgMzk1LjkgMTM5LjIiIHdpZHRoPSIyNTAwIiBoZWlnaHQ9Ijg3OSI+PHN0eWxlPi5zdDB7ZmlsbDojYzAwfTwvc3R5bGU+PHBhdGggY2xhc3M9InN0MCIgZD0iTTM0NC42IDEyMS4xdjE4LjFoMzIuN2M2LjcgMCAxOC4yLTQuOSAxOC42LTE4LjZ2LTdjMC0xMS43LTkuNi0xOC42LTE4LjYtMTguNkgzNjF2LTguNGgzMi4zVjY4LjRoLTMxYy04IDAtMTguNyA2LjYtMTguNyAxOC45djYuM2MwIDEyLjMgMTAuNiAxOC42IDE4LjcgMTguNiAyMi41LjEtNS40IDAgMTUuNCAwdjguOG0tMjA4LjMtNC4zczE3LjUtMS41IDE3LjUtMjQuMS0yMS4yLTI0LjctMjEuMi0yNC43aC0zOC4ydjcxLjNoMTkuMlYxMjJsMTYuNiAxNy4yaDI4LjRsLTIyLjMtMjIuNXptLTcuNC0xNC42aC0xNS4zVjg1LjhoMTUuNHM0LjMgMS42IDQuMyA4LjEtNC40IDguMi00LjQgOC4yem03Mi4zLTMzLjdoLTE5LjVjLTEzLjkgMC0xOC42IDEyLjYtMTguNiAxOC42djUyLjJoMTkuNXYtMTIuNUgyMzR2MTIuNWgxOC45Vjg3YzAtMTUuMi0xMy44LTE4LjYtMTguNi0xOC42em0tLjMgMzguMWgtMTguNFY4OS4yczAtMy45IDYuMS0zLjloNi43YzUuNCAwIDUuNSAzLjkgNS41IDMuOXYxNy4zaC4xek0yNjEuOCA2OC40aDIwLjN2NzAuOGgtMjAuM3pNMzEwLjYgMTIwLjlWNjguNGgtMjAuMnY3MC44aDQ3LjV2LTE4LjN6Ii8+PHBhdGggY2xhc3M9InN0MCIgZD0iTTcgMTM5LjJoNzlzLTE1LjEtNjguOSAzNC45LTk2LjhjMTAuOS01LjMgNDUuNi0yNS4xIDEwMi40IDE2LjkgMS44LTEuNSAzLjUtMi43IDMuNS0yLjdzLTUyLTUxLjktMTA5LjktNDYuMUM4Ny44IDEzLjEgNTIgMzkuNiAzMSA3NC42UzcgMTM5LjIgNyAxMzkuMnoiLz48cGF0aCBjbGFzcz0ic3QwIiBkPSJNNyAxMzkuMmg3OXMtMTUuMS02OC45IDM0LjktOTYuOGMxMC45LTUuMyA0NS42LTI1LjEgMTAyLjQgMTYuOSAxLjgtMS41IDMuNS0yLjcgMy41LTIuN3MtNTItNTEuOS0xMDkuOS00Ni4xQzg3LjggMTMuMSA1MiAzOS42IDMxIDc0LjZTNyAxMzkuMiA3IDEzOS4yeiIvPjxwYXRoIGNsYXNzPSJzdDAiIGQ9Ik03IDEzOS4yaDc5cy0xNS4xLTY4LjkgMzQuOS05Ni44YzEwLjktNS4zIDQ1LjYtMjUuMSAxMDIuNCAxNi45IDEuOC0xLjUgMy41LTIuNyAzLjUtMi43cy01Mi01MS45LTEwOS45LTQ2LjFjLTI5LjIgMi42LTY1IDI5LjEtODYgNjQuMVM3IDEzOS4yIDcgMTM5LjJ6TTE3MS42IDE2LjFsLjQtNi43Yy0uOS0uNS0zLjQtMS43LTkuNy0zLjVsLS40IDYuNmMzLjMgMS4xIDYuNSAyLjMgOS43IDMuNnoiLz48cGF0aCBjbGFzcz0ic3QwIiBkPSJNMTYyLjEgMzcuM2wtLjQgNi4zYzMuMy4xIDYuNi41IDkuOSAxLjJsLjQtNi4yYy0zLjQtLjctNi43LTEuMS05LjktMS4zem0tMzctMzEuMmgxbC0yLTYuMWMtMy4xIDAtNi4zLjItOS42LjZsMS45IDUuOWMyLjktLjMgNS44LS40IDguNy0uNHptNC44IDM2LjhsMi4zIDYuOWMyLjktMS40IDUuOC0yLjYgOC43LTMuNWwtMi4yLTYuNmMtMy40IDEtNi4zIDIuMS04LjggMy4yek04NC41IDE2LjZMODAgOS43Yy0yLjUgMS4zLTUuMSAyLjctNy44IDQuM2w0LjYgN2MyLjYtMS42IDUuMS0zLjEgNy43LTQuNHptMjAuNSA0NWw0LjggNy4yYzEuNy0yLjUgMy43LTQuOCA1LjktNy4xbC00LjUtNi44Yy0yLjMgMi4xLTQuNCA0LjQtNi4yIDYuN3pNOTAuNSA5My44bDguMSA2LjRjLjQtMy45IDEuMS03LjggMi4xLTExLjdsLTcuMi01LjdjLTEuMyAzLjctMi4yIDcuNC0zIDExek00Ni43IDQ2LjNsLTcuMS02LjJjLTIuNiAyLjUtNS4xIDUtNy40IDcuNWw3LjcgNi42YzIuMS0yLjcgNC40LTUuNCA2LjgtNy45ek0xNi41IDkxTDUgODYuOGMtMS45IDQuMy00IDkuMy01IDEybDExLjUgNC4yYzEuMy0zLjQgMy40LTguMyA1LTEyek04OSAxMTkuMmMuMiA1LjMuNyA5LjYgMS4yIDEyLjZsMTIgNC4zYy0uOS0zLjktMS44LTguMy0yLjQtMTNMODkgMTE5LjJ6Ii8+PC9zdmc+;" parent="1" vertex="1">
                    <mxGeometry x="287" y="469" width="62" height="21.82" as="geometry"/>
                </mxCell>
                <mxCell id="16" value="" style="endArrow=classic;html=1;exitX=0.995;exitY=0.5;exitDx=0;exitDy=0;exitPerimeter=0;" parent="1" source="2" target="3" edge="1">
                    <mxGeometry width="50" height="50" relative="1" as="geometry">
                        <mxPoint x="249" y="180" as="sourcePoint"/>
                        <mxPoint x="299" y="130" as="targetPoint"/>
                    </mxGeometry>
                </mxCell>
                <mxCell id="17" value="" style="endArrow=classic;html=1;entryX=0;entryY=0.5;entryDx=0;entryDy=0;" parent="1" source="3" target="14" edge="1">
                    <mxGeometry width="50" height="50" relative="1" as="geometry">
                        <mxPoint x="227.78125" y="80.305" as="sourcePoint"/>
                        <mxPoint x="279" y="80" as="targetPoint"/>
                    </mxGeometry>
                </mxCell>
                <mxCell id="19" value="" style="outlineConnect=0;dashed=0;verticalLabelPosition=bottom;verticalAlign=top;align=center;html=1;shape=mxgraph.aws3.virtual_private_cloud;fillColor=#F58534;gradientColor=none;" parent="1" vertex="1">
                    <mxGeometry x="128" y="160" width="50.06" height="34" as="geometry"/>
                </mxCell>
                <mxCell id="12" value="" style="shape=image;verticalLabelPosition=bottom;labelBackgroundColor=#ffffff;verticalAlign=top;aspect=fixed;imageAspect=0;image=https://www.nginx.com/wp-content/themes/nginx-theme/assets/img/logo.png;" parent="1" vertex="1">
                    <mxGeometry x="204" y="392" width="68.33" height="15.77" as="geometry"/>
                </mxCell>
                <mxCell id="10" value="" style="outlineConnect=0;dashed=0;verticalLabelPosition=bottom;verticalAlign=top;align=center;html=1;shape=mxgraph.aws3.ec2;fillColor=#F58534;gradientColor=none;" parent="1" vertex="1">
                    <mxGeometry x="179.03" y="337" width="38" height="46.19" as="geometry"/>
                </mxCell>
                <mxCell id="33" style="edgeStyle=orthogonalEdgeStyle;rounded=0;orthogonalLoop=1;jettySize=auto;html=1;entryX=1;entryY=0.5;entryDx=0;entryDy=0;startArrow=classic;startFill=1;" parent="1" source="32" target="25" edge="1">
                    <mxGeometry relative="1" as="geometry">
                        <Array as="points">
                            <mxPoint x="446" y="480"/>
                        </Array>
                    </mxGeometry>
                </mxCell>
                <mxCell id="32" value="" style="outlineConnect=0;dashed=0;verticalLabelPosition=bottom;verticalAlign=top;align=center;html=1;shape=mxgraph.aws3.application_load_balancer;fillColor=#F58534;gradientColor=none;rounded=1;shadow=0;strokeColor=#F0F0F0;strokeWidth=2;" parent="1" vertex="1">
                    <mxGeometry x="531" y="451.48" width="54.5" height="56.87" as="geometry"/>
                </mxCell>
                <mxCell id="35" style="rounded=0;orthogonalLoop=1;jettySize=auto;html=1;entryX=0.5;entryY=1;entryDx=0;entryDy=0;entryPerimeter=0;startArrow=none;startFill=0;" parent="1" source="34" target="32" edge="1">
                    <mxGeometry relative="1" as="geometry"/>
                </mxCell>
                <mxCell id="34" value="" style="outlineConnect=0;dashed=0;verticalLabelPosition=bottom;verticalAlign=top;align=center;html=1;shape=mxgraph.aws3.route_53;fillColor=#F58536;gradientColor=none;rounded=1;shadow=0;dashPattern=1 1;strokeColor=#F0F0F0;strokeWidth=2;" parent="1" vertex="1">
                    <mxGeometry x="537.64" y="655" width="41.23" height="50" as="geometry"/>
                </mxCell>
                <mxCell id="37" style="edgeStyle=none;rounded=0;orthogonalLoop=1;jettySize=auto;html=1;entryX=1;entryY=0.5;entryDx=0;entryDy=0;entryPerimeter=0;startArrow=none;startFill=0;" parent="1" source="36" target="34" edge="1">
                    <mxGeometry relative="1" as="geometry"/>
                </mxCell>
                <mxCell id="36" value="" style="html=1;verticalLabelPosition=bottom;align=center;labelBackgroundColor=#ffffff;verticalAlign=top;strokeWidth=2;strokeColor=#0080F0;shadow=0;dashed=0;shape=mxgraph.ios7.icons.user;rounded=1;dashPattern=1 1;" parent="1" vertex="1">
                    <mxGeometry x="623" y="665" width="30" height="30" as="geometry"/>
                </mxCell>
                <UserObject label="push" placeholders="1" name="Variable" id="40">
                    <mxCell style="text;html=1;strokeColor=none;fillColor=none;align=center;verticalAlign=middle;whiteSpace=wrap;overflow=hidden;rounded=1;shadow=0;dashed=1;dashPattern=1 1;" parent="1" vertex="1">
                        <mxGeometry x="88" y="83.5" width="80" height="20" as="geometry"/>
                    </mxCell>
                </UserObject>
                <UserObject label="deploy" placeholders="1" name="Variable" id="41">
                    <mxCell style="text;html=1;strokeColor=none;fillColor=none;align=center;verticalAlign=middle;whiteSpace=wrap;overflow=hidden;rounded=1;shadow=0;dashed=1;dashPattern=1 1;" parent="1" vertex="1">
                        <mxGeometry x="308" y="110" width="80" height="20" as="geometry"/>
                    </mxCell>
                </UserObject>
                <UserObject label="push image" placeholders="1" name="Variable" id="42">
                    <mxCell style="text;html=1;strokeColor=none;fillColor=none;align=center;verticalAlign=middle;whiteSpace=wrap;overflow=hidden;rounded=1;shadow=0;dashed=1;dashPattern=1 1;" parent="1" vertex="1">
                        <mxGeometry x="197.09" y="180" width="80" height="20" as="geometry"/>
                    </mxCell>
                </UserObject>
                <UserObject label="run task" placeholders="1" name="Variable" id="43">
                    <mxCell style="text;html=1;strokeColor=none;fillColor=none;align=center;verticalAlign=middle;whiteSpace=wrap;overflow=hidden;rounded=1;shadow=0;dashed=1;dashPattern=1 1;" parent="1" vertex="1">
                        <mxGeometry x="316.83" y="180" width="80" height="20" as="geometry"/>
                    </mxCell>
                </UserObject>
                <UserObject label="pull image" placeholders="1" name="Variable" id="44">
                    <mxCell style="text;html=1;strokeColor=none;fillColor=none;align=center;verticalAlign=middle;whiteSpace=wrap;overflow=hidden;rounded=1;shadow=0;dashed=1;dashPattern=1 1;" parent="1" vertex="1">
                        <mxGeometry x="220" y="240" width="80" height="20" as="geometry"/>
                    </mxCell>
                </UserObject>
                <UserObject label="ECR" placeholders="1" name="Variable" id="45">
                    <mxCell style="text;html=1;strokeColor=none;fillColor=none;align=center;verticalAlign=middle;whiteSpace=wrap;overflow=hidden;rounded=1;shadow=0;dashed=1;dashPattern=1 1;" parent="1" vertex="1">
                        <mxGeometry x="158.03" y="266.24" width="80" height="20" as="geometry"/>
                    </mxCell>
                </UserObject>
                <UserObject label="ECS" placeholders="1" name="Variable" id="46">
                    <mxCell style="text;html=1;strokeColor=none;fillColor=none;align=center;verticalAlign=middle;whiteSpace=wrap;overflow=hidden;rounded=1;shadow=0;dashed=1;dashPattern=1 1;" parent="1" vertex="1">
                        <mxGeometry x="300" y="264.24" width="80" height="20" as="geometry"/>
                    </mxCell>
                </UserObject>
                <UserObject label="EC2" placeholders="1" name="Variable" id="47">
                    <mxCell style="text;html=1;strokeColor=none;fillColor=none;align=center;verticalAlign=middle;whiteSpace=wrap;overflow=hidden;rounded=1;shadow=0;dashed=1;dashPattern=1 1;" parent="1" vertex="1">
                        <mxGeometry x="157" y="317" width="80" height="20" as="geometry"/>
                    </mxCell>
                </UserObject>
                <UserObject label="puma" placeholders="1" name="Variable" id="48">
                    <mxCell style="text;html=1;strokeColor=none;fillColor=none;align=center;verticalAlign=middle;whiteSpace=wrap;overflow=hidden;rounded=1;shadow=0;dashed=1;dashPattern=1 1;" parent="1" vertex="1">
                        <mxGeometry x="226" y="372" width="80" height="20" as="geometry"/>
                    </mxCell>
                </UserObject>
                <UserObject label="RDS" placeholders="1" name="Variable" id="49">
                    <mxCell style="text;html=1;strokeColor=none;fillColor=none;align=center;verticalAlign=middle;whiteSpace=wrap;overflow=hidden;rounded=1;shadow=0;dashed=1;dashPattern=1 1;" parent="1" vertex="1">
                        <mxGeometry x="518" y="274.24" width="80" height="20" as="geometry"/>
                    </mxCell>
                </UserObject>
                <UserObject label="ALB" placeholders="1" name="Variable" id="50">
                    <mxCell style="text;html=1;strokeColor=none;fillColor=none;align=center;verticalAlign=middle;whiteSpace=wrap;overflow=hidden;rounded=1;shadow=0;dashed=1;dashPattern=1 1;" parent="1" vertex="1">
                        <mxGeometry x="518.25" y="431.48" width="80" height="20" as="geometry"/>
                    </mxCell>
                </UserObject>
                <UserObject label="Route53" placeholders="1" name="Variable" id="51">
                    <mxCell style="text;html=1;strokeColor=none;fillColor=none;align=center;verticalAlign=middle;whiteSpace=wrap;overflow=hidden;rounded=1;shadow=0;dashed=1;dashPattern=1 1;" parent="1" vertex="1">
                        <mxGeometry x="518" y="710" width="80" height="20" as="geometry"/>
                    </mxCell>
                </UserObject>
                <UserObject label="GitHub" placeholders="1" name="Variable" id="53">
                    <mxCell style="text;html=1;strokeColor=none;fillColor=none;align=center;verticalAlign=middle;whiteSpace=wrap;overflow=hidden;rounded=1;shadow=0;dashed=1;dashPattern=1 1;" parent="1" vertex="1">
                        <mxGeometry x="157" y="32.38" width="80" height="20" as="geometry"/>
                    </mxCell>
                </UserObject>
                <UserObject label="CircleCI" placeholders="1" name="Variable" id="54">
                    <mxCell style="text;html=1;strokeColor=none;fillColor=none;align=center;verticalAlign=middle;whiteSpace=wrap;overflow=hidden;rounded=1;shadow=0;dashed=1;dashPattern=1 1;" parent="1" vertex="1">
                        <mxGeometry x="277.09000000000003" y="32.38" width="80" height="20" as="geometry"/>
                    </mxCell>
                </UserObject>
            </root>
        </mxGraphModel>
    </diagram>
</mxfile>